<mxfile host="app.diagrams.net" modified="2024-06-27T01:23:57.358Z" agent="Mozilla/5.0 (Windows NT 10.0; Win64; x64) AppleWebKit/537.36 (KHTML, like Gecko) Chrome/126.0.0.0 Safari/537.36" etag="VYWRv4WwO5QFQC-wtIh-" version="24.6.3" type="google">
  <diagram name="Página-1" id="cD7EnpDYEp7FXKBbG45r">
    <mxGraphModel grid="1" page="1" gridSize="10" guides="1" tooltips="1" connect="1" arrows="1" fold="1" pageScale="1" pageWidth="827" pageHeight="1169" math="0" shadow="0">
      <root>
        <mxCell id="0" />
        <mxCell id="1" parent="0" />
        <mxCell id="PY9JMLAGvUaiEQOIDfsy-16" value="" style="rounded=0;whiteSpace=wrap;html=1;" vertex="1" parent="1">
          <mxGeometry x="140" y="60" width="560" height="320" as="geometry" />
        </mxCell>
        <mxCell id="PY9JMLAGvUaiEQOIDfsy-2" value="Users" style="sketch=0;outlineConnect=0;fontColor=#232F3E;gradientColor=none;strokeColor=#232F3E;fillColor=#ffffff;dashed=0;verticalLabelPosition=bottom;verticalAlign=top;align=center;html=1;fontSize=12;fontStyle=0;aspect=fixed;shape=mxgraph.aws4.resourceIcon;resIcon=mxgraph.aws4.users;" vertex="1" parent="1">
          <mxGeometry x="40" y="170" width="60" height="60" as="geometry" />
        </mxCell>
        <mxCell id="PY9JMLAGvUaiEQOIDfsy-3" style="edgeStyle=orthogonalEdgeStyle;rounded=0;orthogonalLoop=1;jettySize=auto;html=1;" edge="1" parent="1" source="PY9JMLAGvUaiEQOIDfsy-2">
          <mxGeometry relative="1" as="geometry">
            <mxPoint x="140" y="200" as="targetPoint" />
          </mxGeometry>
        </mxCell>
        <mxCell id="PY9JMLAGvUaiEQOIDfsy-20" style="edgeStyle=orthogonalEdgeStyle;rounded=0;orthogonalLoop=1;jettySize=auto;html=1;entryX=0;entryY=0.5;entryDx=0;entryDy=0;" edge="1" parent="1" source="PY9JMLAGvUaiEQOIDfsy-4" target="PY9JMLAGvUaiEQOIDfsy-5">
          <mxGeometry relative="1" as="geometry" />
        </mxCell>
        <mxCell id="PY9JMLAGvUaiEQOIDfsy-4" value="" style="outlineConnect=0;dashed=0;verticalLabelPosition=bottom;verticalAlign=top;align=center;html=1;shape=mxgraph.aws3.elastic_load_balancing;fillColor=#F58534;gradientColor=none;" vertex="1" parent="1">
          <mxGeometry x="300" y="153.5" width="76.5" height="93" as="geometry" />
        </mxCell>
        <mxCell id="PY9JMLAGvUaiEQOIDfsy-5" value="Instâncias EC2 (api-transferencia)" style="rounded=1;arcSize=10;dashed=1;fillColor=none;gradientColor=none;dashPattern=8 3 1 3;strokeWidth=2;" vertex="1" parent="1">
          <mxGeometry x="440" y="120" width="199.5" height="199.5" as="geometry" />
        </mxCell>
        <mxCell id="PY9JMLAGvUaiEQOIDfsy-6" value="" style="outlineConnect=0;dashed=0;verticalLabelPosition=bottom;verticalAlign=top;align=center;html=1;shape=mxgraph.aws3.ec2;fillColor=#F58534;gradientColor=none;" vertex="1" parent="1">
          <mxGeometry x="550" y="137" width="60" height="73" as="geometry" />
        </mxCell>
        <mxCell id="PY9JMLAGvUaiEQOIDfsy-7" value="" style="outlineConnect=0;dashed=0;verticalLabelPosition=bottom;verticalAlign=top;align=center;html=1;shape=mxgraph.aws3.ec2;fillColor=#F58534;gradientColor=none;" vertex="1" parent="1">
          <mxGeometry x="460" y="137" width="60" height="73" as="geometry" />
        </mxCell>
        <mxCell id="PY9JMLAGvUaiEQOIDfsy-9" value="Auto Scaling Group" style="text;html=1;align=center;verticalAlign=middle;resizable=0;points=[];autosize=1;strokeColor=none;fillColor=none;" vertex="1" parent="1">
          <mxGeometry x="474.75" y="90" width="130" height="30" as="geometry" />
        </mxCell>
        <mxCell id="PY9JMLAGvUaiEQOIDfsy-19" style="edgeStyle=orthogonalEdgeStyle;rounded=0;orthogonalLoop=1;jettySize=auto;html=1;" edge="1" parent="1" source="PY9JMLAGvUaiEQOIDfsy-10" target="PY9JMLAGvUaiEQOIDfsy-4">
          <mxGeometry relative="1" as="geometry" />
        </mxCell>
        <mxCell id="PY9JMLAGvUaiEQOIDfsy-10" value="" style="outlineConnect=0;dashed=0;verticalLabelPosition=bottom;verticalAlign=top;align=center;html=1;shape=mxgraph.aws3.internet_gateway;fillColor=#F58534;gradientColor=none;" vertex="1" parent="1">
          <mxGeometry x="167" y="164" width="69" height="72" as="geometry" />
        </mxCell>
        <mxCell id="PY9JMLAGvUaiEQOIDfsy-13" value="VPC" style="points=[[0,0],[0.25,0],[0.5,0],[0.75,0],[1,0],[1,0.25],[1,0.5],[1,0.75],[1,1],[0.75,1],[0.5,1],[0.25,1],[0,1],[0,0.75],[0,0.5],[0,0.25]];outlineConnect=0;gradientColor=none;html=1;whiteSpace=wrap;fontSize=12;fontStyle=0;container=1;pointerEvents=0;collapsible=0;recursiveResize=0;shape=mxgraph.aws4.group;grIcon=mxgraph.aws4.group_vpc2;strokeColor=#8C4FFF;fillColor=none;verticalAlign=top;align=left;spacingLeft=30;fontColor=#AAB7B8;dashed=0;" vertex="1" parent="1">
          <mxGeometry x="270" y="70" width="410" height="290" as="geometry" />
        </mxCell>
        <mxCell id="PY9JMLAGvUaiEQOIDfsy-21" value="" style="shape=image;html=1;verticalAlign=top;verticalLabelPosition=bottom;labelBackgroundColor=#ffffff;imageAspect=0;aspect=fixed;image=https://cdn1.iconfinder.com/data/icons/medical-178/96/Health_Check-128.png" vertex="1" parent="PY9JMLAGvUaiEQOIDfsy-13">
          <mxGeometry x="215" y="190" width="40" height="40" as="geometry" />
        </mxCell>
        <mxCell id="PY9JMLAGvUaiEQOIDfsy-29" value="Elastic Load Balancing" style="text;html=1;align=center;verticalAlign=middle;resizable=0;points=[];autosize=1;strokeColor=none;fillColor=none;" vertex="1" parent="PY9JMLAGvUaiEQOIDfsy-13">
          <mxGeometry x="4" y="60" width="140" height="30" as="geometry" />
        </mxCell>
        <mxCell id="PY9JMLAGvUaiEQOIDfsy-17" value="AWS" style="text;html=1;align=center;verticalAlign=middle;resizable=0;points=[];autosize=1;strokeColor=none;fillColor=none;" vertex="1" parent="1">
          <mxGeometry x="140" y="30" width="50" height="30" as="geometry" />
        </mxCell>
        <mxCell id="PY9JMLAGvUaiEQOIDfsy-18" value="Internet Gateway" style="text;html=1;align=center;verticalAlign=middle;resizable=0;points=[];autosize=1;strokeColor=none;fillColor=none;" vertex="1" parent="1">
          <mxGeometry x="146.5" y="230" width="110" height="30" as="geometry" />
        </mxCell>
        <mxCell id="PY9JMLAGvUaiEQOIDfsy-22" style="edgeStyle=orthogonalEdgeStyle;rounded=0;orthogonalLoop=1;jettySize=auto;html=1;" edge="1" parent="1" source="PY9JMLAGvUaiEQOIDfsy-21" target="PY9JMLAGvUaiEQOIDfsy-6">
          <mxGeometry relative="1" as="geometry" />
        </mxCell>
        <mxCell id="PY9JMLAGvUaiEQOIDfsy-23" style="edgeStyle=orthogonalEdgeStyle;rounded=0;orthogonalLoop=1;jettySize=auto;html=1;" edge="1" parent="1" source="PY9JMLAGvUaiEQOIDfsy-21" target="PY9JMLAGvUaiEQOIDfsy-7">
          <mxGeometry relative="1" as="geometry" />
        </mxCell>
        <mxCell id="PY9JMLAGvUaiEQOIDfsy-24" value="Health Checker" style="text;html=1;align=center;verticalAlign=middle;resizable=0;points=[];autosize=1;strokeColor=none;fillColor=none;" vertex="1" parent="1">
          <mxGeometry x="450" y="289.5" width="110" height="30" as="geometry" />
        </mxCell>
        <mxCell id="PY9JMLAGvUaiEQOIDfsy-25" value="" style="aspect=fixed;sketch=0;html=1;dashed=0;whitespace=wrap;verticalLabelPosition=bottom;verticalAlign=top;fillColor=#2875E2;strokeColor=#ffffff;points=[[0.005,0.63,0],[0.1,0.2,0],[0.9,0.2,0],[0.5,0,0],[0.995,0.63,0],[0.72,0.99,0],[0.5,1,0],[0.28,0.99,0]];shape=mxgraph.kubernetes.icon2;kubernetesLabel=1;prIcon=api" vertex="1" parent="1">
          <mxGeometry x="830" y="182" width="50" height="48" as="geometry" />
        </mxCell>
        <mxCell id="PY9JMLAGvUaiEQOIDfsy-26" style="edgeStyle=orthogonalEdgeStyle;rounded=0;orthogonalLoop=1;jettySize=auto;html=1;entryX=0.005;entryY=0.63;entryDx=0;entryDy=0;entryPerimeter=0;" edge="1" parent="1" source="PY9JMLAGvUaiEQOIDfsy-5" target="PY9JMLAGvUaiEQOIDfsy-25">
          <mxGeometry relative="1" as="geometry" />
        </mxCell>
        <mxCell id="PY9JMLAGvUaiEQOIDfsy-27" value="bacen" style="text;html=1;align=center;verticalAlign=middle;resizable=0;points=[];autosize=1;strokeColor=none;fillColor=none;" vertex="1" parent="1">
          <mxGeometry x="825" y="230" width="60" height="30" as="geometry" />
        </mxCell>
        <mxCell id="PY9JMLAGvUaiEQOIDfsy-28" value="Retry Pattern" style="text;html=1;align=center;verticalAlign=middle;resizable=0;points=[];autosize=1;strokeColor=none;fillColor=none;" vertex="1" parent="1">
          <mxGeometry x="700" y="182" width="90" height="30" as="geometry" />
        </mxCell>
      </root>
    </mxGraphModel>
  </diagram>
</mxfile>
